<?xml version="1.0" encoding="UTF-8" standalone="no"?>
<svg
   xmlns:dc="http://purl.org/dc/elements/1.1/"
   xmlns:cc="http://creativecommons.org/ns#"
   xmlns:rdf="http://www.w3.org/1999/02/22-rdf-syntax-ns#"
   xmlns:svg="http://www.w3.org/2000/svg"
   xmlns="http://www.w3.org/2000/svg"
   xmlns:sodipodi="http://sodipodi.sourceforge.net/DTD/sodipodi-0.dtd"
   xmlns:inkscape="http://www.inkscape.org/namespaces/inkscape"
   id="Layer_1"
   data-name="Layer 1"
   viewBox="0 0 1582 274"
   version="1.1"
   sodipodi:docname="redhat.svg"
   width="1582"
   height="274"
   inkscape:version="0.92.3 (2405546, 2018-03-11)">
  <metadata
     id="metadata3815">
    <rdf:RDF>
      <cc:Work
         rdf:about="">
        <dc:format>image/svg+xml</dc:format>
        <dc:type
           rdf:resource="http://purl.org/dc/dcmitype/StillImage" />
        <dc:title>Logo SecurIT</dc:title>
      </cc:Work>
    </rdf:RDF>
  </metadata>
  <sodipodi:namedview
     pagecolor="#ffffff"
     bordercolor="#666666"
     borderopacity="1"
     objecttolerance="10"
     gridtolerance="10"
     guidetolerance="10"
     inkscape:pageopacity="0"
     inkscape:pageshadow="2"
     inkscape:window-width="3773"
     inkscape:window-height="2105"
     id="namedview3813"
     showgrid="false"
     inkscape:zoom="0.88622082"
     inkscape:cx="1677.3605"
     inkscape:cy="-52.263496"
     inkscape:window-x="67"
     inkscape:window-y="27"
     inkscape:window-maximized="1"
     inkscape:current-layer="Layer_1"
     inkscape:measure-start="1437,223"
     inkscape:measure-end="1503.01,222.292" />
  <defs
     id="defs3794">
    <style
       id="style3792">.cls-1{fill:#ae0055;}.cls-2{fill:#999;}</style>
  </defs>
  <title
     id="title3796">Logo SecurIT</title>
  <path
     class="cls-1"
     d="m 1088,0 h 79 q 0,134.49 0,269 -39.49,0.06 -79,0 -0.05,-134.5 0,-269 z"
     id="path3798"
     inkscape:connector-curvature="0"
     style="fill:#ae0055" />
  <path
     class="cls-1"
     d="m 1197,0 h 240 v 51 q -41,0 -82,0 -0.09,107.49 0,215 -38,0.09 -76,0 -0.09,-107.49 0,-215 c -27.33,0 -54.65,0 -82,0 0.01,-17 -0.05,-34 0,-51 z"
     id="path3800"
     inkscape:connector-curvature="0"
     style="fill:#ae0055" />
  <path
     class="cls-2"
     d="m 82.87,10.82 c 28.11,-11.57 59.55,-11.14 89,-5.68 20.11,3.86 39.52,12.44 54.88,26.12 a 78.26,78.26 0 0 1 22.8,37.47 c -21.77,4 -43.34,9.12 -65.22,12.44 -8.42,2.11 -12.56,-7.14 -18.45,-11.07 -11.34,-11.16 -29,-10.82 -43.3,-6.61 -5.72,2.4 -12.13,5.19 -15.19,10.93 -3.06,5.74 1.14,12.11 5.53,15.64 20.85,13.6 47,13.35 69.15,23.85 27.79,11.45 53.77,35.79 55.54,67.41 -0.11,21.54 -6.58,43.68 -21.58,59.68 -19,20.31 -46.67,29.17 -73.5,33 H 100.5 C 78.69,270.95 56.5,265.58 38.07,253 20.79,241.71 6.92,225 0.07,205.46 v -4.26 c 23.78,-5.26 47.2,-12.28 71.24,-16.27 11,13.1 24.52,26 42.14,28.61 14.16,1.15 30.42,-0.47 40.89,-11.24 5.8,-4.85 3.68,-13.85 -0.59,-19 -8.76,-9.51 -21.3,-14.35 -33.61,-17.3 C 94.85,160.11 69.24,151.11 49.78,133.27 40.03,123.61 31.23,111.57 29.66,97.54 27.5,78 31.5,57.24 43.09,41.07 52.5,26.88 67.27,17.11 82.87,10.82 Z"
     id="path3802"
     inkscape:connector-curvature="0"
     style="fill:#999999" />
  <path
     class="cls-2"
     d="m 320.96,80.94 c 15.34,-8.17 32.89,-10.54 50,-10.83 20.12,0 41.17,1.63 59,11.9 19.55,10.29 32.31,30.29 37.37,51.38 5.36,16.69 3.59,34.4 2.92,51.61 -44.63,0.05 -89.26,-0.05 -133.89,0 -0.06,11 -0.84,23.13 6.1,32.49 6.59,9.28 19.28,10.61 29.7,8.77 13.34,-3.26 20.34,-16.2 26.26,-27.42 21.37,4.17 42.59,9 63.91,13.47 a 114.32,114.32 0 0 1 -25.55,34.47 C 420.97,261.9 399.86,270.31 378.55,274 h -28 c -18.6,-3.13 -37.62,-7.45 -53.52,-18.07 -32.66,-22.3 -45,-67.48 -32.52,-104.29 9.99,-28.92 28.55,-56.56 56.45,-70.7 z m 29.89,41.92 c -7.17,6.23 -8.43,16.18 -9.42,25.08 18.92,0.13 37.84,0.08 56.77,0 0.12,-4.77 0.38,-9.55 0.14,-14.31 -0.93,-8.39 -8,-15.41 -16.29,-16.73 -10.31,-1.77 -23.24,-2.17 -31.2,5.96 z"
     id="path3804"
     inkscape:connector-curvature="0"
     style="fill:#999999" />
  <path
     class="cls-2"
     d="M 561.39,74.66 C 583.57,68.9 607.5,68 629.68,74.33 a 68.84,68.84 0 0 1 35.13,24.79 c 9.64,12.2 14.43,27.45 16.68,42.65 -21.78,3.47 -43.6,6.68 -65.49,9.31 -2.32,-7.52 -2.32,-16.84 -8.53,-22.56 -6.34,-6.8 -17,-8.08 -25.21,-4.27 -10.89,6.92 -14.91,20 -18.29,31.71 -4,16.93 -7.11,34.92 -1.9,52 1.4,5.72 5.81,10.35 10.9,13.08 8.82,3.26 20.17,2 26.6,-5.45 6.5,-6.22 9.89,-14.65 13.68,-22.61 19.17,4.5 38.27,9.32 57.34,14.25 -5,17 -14.21,33 -27.91,44.43 -14.09,12.79 -32.75,18.91 -51.12,22.34 H 563.5 c -19.43,-3.31 -39.51,-9.44 -53.84,-23.69 -14.95,-13.94 -22.58,-33.91 -25.31,-53.79 -3.4,-33.48 9.55,-66.93 30.59,-92.57 C 527.2,90.05 543.21,79 561.39,74.66 Z"
     id="path3806"
     inkscape:connector-curvature="0"
     style="fill:#999999" />
  <path
     class="cls-2"
     d="m 1035.02,76 c 10.48,-6.58 23.33,-6 35.23,-6.16 -2.73,22.73 -7.43,45.17 -10.47,67.85 -13.87,0.27 -29.13,-0.35 -41,8.1 -17.54,11.39 -22.64,33.21 -24.28,52.66 -3.09,23.19 -6.78,46.3 -9.71,69.51 q -40.09,0.1 -80.18,0 c 11.51,-63.42 23.88,-126.69 36.2,-190 q 32.71,0 65.46,0.06 c -1.08,13.49 -3.54,26.81 -5.22,40.22 7.57,-16.49 17.17,-33.64 33.97,-42.24 z"
     id="path3808"
     inkscape:connector-curvature="0"
     style="fill:#999999" />
  <path
     class="cls-2"
     d="m 830.55,76.29 c 23.86,-0.51 47.73,-0.34 71.6,-0.22 -10.41,63.68 -22.35,127.12 -32.47,190.85 -22.24,-0.24 -44.45,1 -66.68,1.14 0.43,-7.7 0.86,-15.4 1.1,-23.1 a 65,65 0 0 1 -39.67,29 H 726.5 c -9,-2.68 -18.06,-7 -23.4,-15.08 -12.6,-15.88 -11.1,-37.55 -8.5,-56.41 7.23,-41.86 15.18,-83.59 22.61,-125.41 24.38,-0.11 48.76,-0.15 73.15,0 -7.24,32.14 -15.2,64.22 -19.27,97 -1.21,12.94 -3,26.13 0.06,39 0.19,7 7.7,11.19 14,11.41 6.3,0.22 11.88,-3.92 15.42,-8.8 8.54,-10.74 10.33,-24.83 13.14,-37.81 5.3,-33.93 11.65,-67.65 16.84,-101.57 z"
     id="path3810"
     inkscape:connector-curvature="0"
     style="fill:#999999" />
</svg>
